<?plantuml 1.2026.2?><svg xmlns="http://www.w3.org/2000/svg" xmlns:xlink="http://www.w3.org/1999/xlink" contentStyleType="text/css" data-diagram-type="CLASS" height="795px" preserveAspectRatio="none" style="width:913px;height:795px;background:#FFFFFF;" version="1.1" viewBox="0 0 913 795" width="913px" zoomAndPan="magnify"><defs/><g><!--cluster Framework--><g class="cluster" data-qualified-name="Framework" data-source-line="14" id="ent0002"><rect fill="none" height="84" rx="2.5" ry="2.5" style="stroke:#000000;stroke-width:1.5;" width="225" x="397" y="7"/><text fill="#000000" font-family="sans-serif" font-size="14" font-weight="bold" lengthAdjust="spacing" textLength="74.6963" x="472.1519" y="23.5332">Framework</text></g><!--cluster MiniDraw Assignment--><g class="cluster" data-qualified-name="MiniDraw Assignment" data-source-line="19" id="ent0005"><rect fill="none" height="674" rx="2.5" ry="2.5" style="stroke:#000000;stroke-width:1.5;" width="697" x="7" y="115"/><text fill="#000000" font-family="sans-serif" font-size="14" font-weight="bold" lengthAdjust="spacing" textLength="146.2412" x="282.3794" y="131.5332">MiniDraw Assignment</text></g><!--class Window--><g class="entity" data-qualified-name="Framework.Window" data-source-line="15" id="ent0003"><rect fill="#FCFCFC" height="32" rx="2.5" ry="2.5" style="stroke:#333333;stroke-width:0.5;" width="81.793" x="413" y="43"/><rect fill="#EFEFEF" height="32" rx="2.5" ry="2.5" style="stroke:#EFEFEF;stroke-width:0.5;" width="81.793" x="413" y="43"/><rect fill="#EFEFEF" height="2.5" style="stroke:#EFEFEF;stroke-width:0.5;" width="81.793" x="413" y="72.5"/><rect fill="none" height="32" rx="2.5" ry="2.5" style="stroke:#333333;stroke-width:0.5;" width="81.793" x="413" y="43"/><ellipse cx="428" cy="59" fill="#A9DCDF" rx="11" ry="11" style="stroke:#181818;stroke-width:1;"/><path d="M430.1875,60.7656 L426.0469,60.7656 L425.625,61.7969 L426.0469,61.7969 Q426.6563,61.7969 426.9219,62.0313 Q427.1875,62.2656 427.1875,62.6563 Q427.1875,63.0313 426.9219,63.2656 Q426.6563,63.5 426.0469,63.5 L423.75,63.5 Q423.1406,63.5 422.8906,63.2656 Q422.625,63.0313 422.625,62.6406 Q422.625,62.2656 422.9063,62.0313 Q423.1719,61.7813 423.7969,61.7969 L426.4688,55.1406 L425.3594,55.1406 Q424.75,55.1406 424.4844,54.9063 Q424.2188,54.6719 424.2188,54.2813 Q424.2188,53.9063 424.4844,53.6719 Q424.75,53.4375 425.3594,53.4375 L429.0313,53.4375 L432.4219,61.7969 Q433.0156,61.7969 433.2031,61.9375 Q433.5938,62.2031 433.5938,62.6563 Q433.5938,63.0313 433.3281,63.2656 Q433.0781,63.5 432.4688,63.5 L430.1719,63.5 Q429.5625,63.5 429.2969,63.2656 Q429.0313,63.0313 429.0313,62.6406 Q429.0313,62.2656 429.2969,62.0313 Q429.5625,61.7969 430.1719,61.7969 L430.5938,61.7969 L430.1875,60.7656 Z M429.4688,59.0625 L428.1094,55.6875 L426.7344,59.0625 L429.4688,59.0625 Z " fill="#000000"/><text fill="#000000" font-family="sans-serif" font-size="14" font-style="italic" lengthAdjust="spacing" textLength="49.793" x="442" y="64.7285">Window</text></g><!--class Widget--><g class="entity" data-qualified-name="Framework.Widget" data-source-line="16" id="ent0004"><rect fill="#FCFCFC" height="32" rx="2.5" ry="2.5" style="stroke:#333333;stroke-width:0.5;" width="75.5723" x="530" y="43"/><rect fill="#EFEFEF" height="32" rx="2.5" ry="2.5" style="stroke:#EFEFEF;stroke-width:0.5;" width="75.5723" x="530" y="43"/><rect fill="#EFEFEF" height="2.5" style="stroke:#EFEFEF;stroke-width:0.5;" width="75.5723" x="530" y="72.5"/><rect fill="none" height="32" rx="2.5" ry="2.5" style="stroke:#333333;stroke-width:0.5;" width="75.5723" x="530" y="43"/><ellipse cx="545" cy="59" fill="#A9DCDF" rx="11" ry="11" style="stroke:#181818;stroke-width:1;"/><path d="M547.1875,60.7656 L543.0469,60.7656 L542.625,61.7969 L543.0469,61.7969 Q543.6563,61.7969 543.9219,62.0313 Q544.1875,62.2656 544.1875,62.6563 Q544.1875,63.0313 543.9219,63.2656 Q543.6563,63.5 543.0469,63.5 L540.75,63.5 Q540.1406,63.5 539.8906,63.2656 Q539.625,63.0313 539.625,62.6406 Q539.625,62.2656 539.9063,62.0313 Q540.1719,61.7813 540.7969,61.7969 L543.4688,55.1406 L542.3594,55.1406 Q541.75,55.1406 541.4844,54.9063 Q541.2188,54.6719 541.2188,54.2813 Q541.2188,53.9063 541.4844,53.6719 Q541.75,53.4375 542.3594,53.4375 L546.0313,53.4375 L549.4219,61.7969 Q550.0156,61.7969 550.2031,61.9375 Q550.5938,62.2031 550.5938,62.6563 Q550.5938,63.0313 550.3281,63.2656 Q550.0781,63.5 549.4688,63.5 L547.1719,63.5 Q546.5625,63.5 546.2969,63.2656 Q546.0313,63.0313 546.0313,62.6406 Q546.0313,62.2656 546.2969,62.0313 Q546.5625,61.7969 547.1719,61.7969 L547.5938,61.7969 L547.1875,60.7656 Z M546.4688,59.0625 L545.1094,55.6875 L543.7344,59.0625 L546.4688,59.0625 Z " fill="#000000"/><text fill="#000000" font-family="sans-serif" font-size="14" font-style="italic" lengthAdjust="spacing" textLength="43.5723" x="559" y="64.7285">Widget</text></g><!--class MiniDraw--><g class="entity" data-qualified-name="MiniDraw Assignment.MiniDraw" data-source-line="20" id="ent0006"><rect fill="#FCFCFC" height="57.6094" rx="2.5" ry="2.5" style="stroke:#333333;stroke-width:0.5;" width="222.9092" x="317.5" y="151"/><rect fill="#EFEFEF" height="32" rx="2.5" ry="2.5" style="stroke:#EFEFEF;stroke-width:0.5;" width="222.9092" x="317.5" y="151"/><rect fill="#EFEFEF" height="2.5" style="stroke:#EFEFEF;stroke-width:0.5;" width="222.9092" x="317.5" y="180.5"/><rect fill="none" height="57.6094" rx="2.5" ry="2.5" style="stroke:#333333;stroke-width:0.5;" width="222.9092" x="317.5" y="151"/><ellipse cx="395.5356" cy="167" fill="#ADD1B2" rx="11" ry="11" style="stroke:#181818;stroke-width:1;"/><path d="M398.3013,162.875 Q398.4575,162.6563 398.645,162.5469 Q398.8325,162.4375 399.0513,162.4375 Q399.4263,162.4375 399.6606,162.7031 Q399.895,162.9531 399.895,163.5625 L399.895,165.0156 Q399.895,165.625 399.6606,165.8906 Q399.4263,166.1563 399.0513,166.1563 Q398.7075,166.1563 398.5044,165.9531 Q398.3013,165.7656 398.1919,165.25 Q398.145,164.8906 397.9575,164.7031 Q397.6294,164.3281 397.02,164.1094 Q396.4106,163.8906 395.7856,163.8906 Q395.02,163.8906 394.3794,164.2188 Q393.7544,164.5469 393.2544,165.2969 Q392.77,166.0469 392.77,167.0781 L392.77,168.1719 Q392.77,169.4063 393.6606,170.2344 Q394.5513,171.0469 396.145,171.0469 Q397.0825,171.0469 397.7388,170.7969 Q398.1294,170.6406 398.5513,170.2031 Q398.8169,169.9375 398.9575,169.8594 Q399.1138,169.7813 399.3169,169.7813 Q399.645,169.7813 399.895,170.0469 Q400.1606,170.2969 400.1606,170.6406 Q400.1606,170.9844 399.8169,171.3906 Q399.3169,171.9688 398.52,172.2969 Q397.4419,172.75 396.145,172.75 Q394.6294,172.75 393.4263,172.125 Q392.4419,171.625 391.7544,170.5625 Q391.0669,169.4844 391.0669,168.2031 L391.0669,167.0469 Q391.0669,165.7188 391.6763,164.5781 Q392.3013,163.4219 393.395,162.8125 Q394.4888,162.1875 395.7231,162.1875 Q396.4575,162.1875 397.0981,162.3594 Q397.7544,162.5156 398.3013,162.875 Z " fill="#000000"/><text fill="#000000" font-family="sans-serif" font-size="14" lengthAdjust="spacing" textLength="58.3379" x="416.0356" y="172.7285">MiniDraw</text><line style="stroke:#333333;stroke-width:0.5;" x1="318.5" x2="539.4092" y1="183" y2="183"/><text fill="#000000" font-family="sans-serif" font-size="14" lengthAdjust="spacing" textLength="210.9092" x="323.5" y="201.5332">-p_canvas_: shared_ptr&lt;Canvas&gt;</text></g><!--class Canvas--><g class="entity" data-qualified-name="MiniDraw Assignment.Canvas" data-source-line="24" id="ent0007"><rect fill="#FCFCFC" height="128.0469" rx="2.5" ry="2.5" style="stroke:#333333;stroke-width:0.5;" width="273.5088" x="375" y="269"/><rect fill="#EFEFEF" height="32" rx="2.5" ry="2.5" style="stroke:#EFEFEF;stroke-width:0.5;" width="273.5088" x="375" y="269"/><rect fill="#EFEFEF" height="2.5" style="stroke:#EFEFEF;stroke-width:0.5;" width="273.5088" x="375" y="298.5"/><rect fill="none" height="128.0469" rx="2.5" ry="2.5" style="stroke:#333333;stroke-width:0.5;" width="273.5088" x="375" y="269"/><ellipse cx="483.77" cy="285" fill="#ADD1B2" rx="11" ry="11" style="stroke:#181818;stroke-width:1;"/><path d="M486.5356,280.875 Q486.6919,280.6563 486.8794,280.5469 Q487.0669,280.4375 487.2856,280.4375 Q487.6606,280.4375 487.895,280.7031 Q488.1294,280.9531 488.1294,281.5625 L488.1294,283.0156 Q488.1294,283.625 487.895,283.8906 Q487.6606,284.1563 487.2856,284.1563 Q486.9419,284.1563 486.7388,283.9531 Q486.5356,283.7656 486.4263,283.25 Q486.3794,282.8906 486.1919,282.7031 Q485.8638,282.3281 485.2544,282.1094 Q484.645,281.8906 484.02,281.8906 Q483.2544,281.8906 482.6138,282.2188 Q481.9888,282.5469 481.4888,283.2969 Q481.0044,284.0469 481.0044,285.0781 L481.0044,286.1719 Q481.0044,287.4063 481.895,288.2344 Q482.7856,289.0469 484.3794,289.0469 Q485.3169,289.0469 485.9731,288.7969 Q486.3638,288.6406 486.7856,288.2031 Q487.0513,287.9375 487.1919,287.8594 Q487.3481,287.7813 487.5513,287.7813 Q487.8794,287.7813 488.1294,288.0469 Q488.395,288.2969 488.395,288.6406 Q488.395,288.9844 488.0513,289.3906 Q487.5513,289.9688 486.7544,290.2969 Q485.6763,290.75 484.3794,290.75 Q482.8638,290.75 481.6606,290.125 Q480.6763,289.625 479.9888,288.5625 Q479.3013,287.4844 479.3013,286.2031 L479.3013,285.0469 Q479.3013,283.7188 479.9106,282.5781 Q480.5356,281.4219 481.6294,280.8125 Q482.7231,280.1875 483.9575,280.1875 Q484.6919,280.1875 485.3325,280.3594 Q485.9888,280.5156 486.5356,280.875 Z " fill="#000000"/><text fill="#000000" font-family="sans-serif" font-size="14" lengthAdjust="spacing" textLength="47.4688" x="504.27" y="290.7285">Canvas</text><line style="stroke:#333333;stroke-width:0.5;" x1="376" x2="647.5088" y1="301" y2="301"/><text fill="#000000" font-family="sans-serif" font-size="14" lengthAdjust="spacing" textLength="261.5088" x="381" y="319.5332">-shape_list_: vector&lt;shared_ptr&lt;Shape&gt;&gt;</text><text fill="#000000" font-family="sans-serif" font-size="14" lengthAdjust="spacing" textLength="92.6133" x="381" y="337.1426">-undo_history_</text><text fill="#000000" font-family="sans-serif" font-size="14" lengthAdjust="spacing" textLength="89.4893" x="381" y="354.752">-redo_history_</text><text fill="#000000" font-family="sans-serif" font-size="14" lengthAdjust="spacing" textLength="151.7783" x="381" y="372.3613">-selected_shape_index_</text><text fill="#000000" font-family="sans-serif" font-size="14" lengthAdjust="spacing" textLength="203.9297" x="381" y="389.9707">-pending_config_: Shape::Config</text></g><!--class Shape--><g class="entity" data-qualified-name="MiniDraw Assignment.Shape" data-source-line="32" id="ent0008"><rect fill="#FCFCFC" height="145.6563" rx="2.5" ry="2.5" style="stroke:#333333;stroke-width:0.5;" width="153.627" x="364" y="457"/><rect fill="#EFEFEF" height="32" rx="2.5" ry="2.5" style="stroke:#EFEFEF;stroke-width:0.5;" width="153.627" x="364" y="457"/><rect fill="#EFEFEF" height="2.5" style="stroke:#EFEFEF;stroke-width:0.5;" width="153.627" x="364" y="486.5"/><rect fill="none" height="145.6563" rx="2.5" ry="2.5" style="stroke:#333333;stroke-width:0.5;" width="153.627" x="364" y="457"/><ellipse cx="416.3223" cy="473" fill="#A9DCDF" rx="11" ry="11" style="stroke:#181818;stroke-width:1;"/><path d="M418.5098,474.7656 L414.3691,474.7656 L413.9473,475.7969 L414.3691,475.7969 Q414.9785,475.7969 415.2441,476.0313 Q415.5098,476.2656 415.5098,476.6563 Q415.5098,477.0313 415.2441,477.2656 Q414.9785,477.5 414.3691,477.5 L412.0723,477.5 Q411.4629,477.5 411.2129,477.2656 Q410.9473,477.0313 410.9473,476.6406 Q410.9473,476.2656 411.2285,476.0313 Q411.4941,475.7813 412.1191,475.7969 L414.791,469.1406 L413.6816,469.1406 Q413.0723,469.1406 412.8066,468.9063 Q412.541,468.6719 412.541,468.2813 Q412.541,467.9063 412.8066,467.6719 Q413.0723,467.4375 413.6816,467.4375 L417.3535,467.4375 L420.7441,475.7969 Q421.3379,475.7969 421.5254,475.9375 Q421.916,476.2031 421.916,476.6563 Q421.916,477.0313 421.6504,477.2656 Q421.4004,477.5 420.791,477.5 L418.4941,477.5 Q417.8848,477.5 417.6191,477.2656 Q417.3535,477.0313 417.3535,476.6406 Q417.3535,476.2656 417.6191,476.0313 Q417.8848,475.7969 418.4941,475.7969 L418.916,475.7969 L418.5098,474.7656 Z M417.791,473.0625 L416.4316,469.6875 L415.0566,473.0625 L417.791,473.0625 Z " fill="#000000"/><text fill="#000000" font-family="sans-serif" font-size="14" font-style="italic" lengthAdjust="spacing" textLength="40.4824" x="436.8223" y="478.7285">Shape</text><line style="stroke:#333333;stroke-width:0.5;" x1="365" x2="516.627" y1="489" y2="489"/><text fill="#000000" font-family="sans-serif" font-size="14" font-style="italic" lengthAdjust="spacing" textLength="77.0273" x="370" y="507.5332">draw(config)</text><text fill="#000000" font-family="sans-serif" font-size="14" font-style="italic" lengthAdjust="spacing" textLength="141.6133" x="370" y="525.1426">hit_test(x, y, tolerance)</text><text fill="#000000" font-family="sans-serif" font-size="14" font-style="italic" lengthAdjust="spacing" textLength="100.3721" x="370" y="542.752">translate(dx, dy)</text><text fill="#000000" font-family="sans-serif" font-size="14" font-style="italic" lengthAdjust="spacing" textLength="141.627" x="370" y="560.3613">rotate(radians, anchor)</text><text fill="#000000" font-family="sans-serif" font-size="14" font-style="italic" lengthAdjust="spacing" textLength="128.3721" x="370" y="577.9707">scale(sx, sy, anchor)</text><text fill="#000000" font-family="sans-serif" font-size="14" font-style="italic" lengthAdjust="spacing" textLength="42.793" x="370" y="595.5801">clone()</text></g><!--class ShapeConfig--><g class="entity" data-qualified-name="MiniDraw Assignment.ShapeConfig" data-source-line="41" id="ent0009"><rect fill="#FCFCFC" height="110.4375" rx="2.5" ry="2.5" style="stroke:#333333;stroke-width:0.5;" width="120.7305" x="23.5" y="663"/><rect fill="#EFEFEF" height="32" rx="2.5" ry="2.5" style="stroke:#EFEFEF;stroke-width:0.5;" width="120.7305" x="23.5" y="663"/><rect fill="#EFEFEF" height="2.5" style="stroke:#EFEFEF;stroke-width:0.5;" width="120.7305" x="23.5" y="692.5"/><rect fill="none" height="110.4375" rx="2.5" ry="2.5" style="stroke:#333333;stroke-width:0.5;" width="120.7305" x="23.5" y="663"/><ellipse cx="38.5" cy="679" fill="#ADD1B2" rx="11" ry="11" style="stroke:#181818;stroke-width:1;"/><path d="M41.2656,674.875 Q41.4219,674.6563 41.6094,674.5469 Q41.7969,674.4375 42.0156,674.4375 Q42.3906,674.4375 42.625,674.7031 Q42.8594,674.9531 42.8594,675.5625 L42.8594,677.0156 Q42.8594,677.625 42.625,677.8906 Q42.3906,678.1563 42.0156,678.1563 Q41.6719,678.1563 41.4688,677.9531 Q41.2656,677.7656 41.1563,677.25 Q41.1094,676.8906 40.9219,676.7031 Q40.5938,676.3281 39.9844,676.1094 Q39.375,675.8906 38.75,675.8906 Q37.9844,675.8906 37.3438,676.2188 Q36.7188,676.5469 36.2188,677.2969 Q35.7344,678.0469 35.7344,679.0781 L35.7344,680.1719 Q35.7344,681.4063 36.625,682.2344 Q37.5156,683.0469 39.1094,683.0469 Q40.0469,683.0469 40.7031,682.7969 Q41.0938,682.6406 41.5156,682.2031 Q41.7813,681.9375 41.9219,681.8594 Q42.0781,681.7813 42.2813,681.7813 Q42.6094,681.7813 42.8594,682.0469 Q43.125,682.2969 43.125,682.6406 Q43.125,682.9844 42.7813,683.3906 Q42.2813,683.9688 41.4844,684.2969 Q40.4063,684.75 39.1094,684.75 Q37.5938,684.75 36.3906,684.125 Q35.4063,683.625 34.7188,682.5625 Q34.0313,681.4844 34.0313,680.2031 L34.0313,679.0469 Q34.0313,677.7188 34.6406,676.5781 Q35.2656,675.4219 36.3594,674.8125 Q37.4531,674.1875 38.6875,674.1875 Q39.4219,674.1875 40.0625,674.3594 Q40.7188,674.5156 41.2656,674.875 Z " fill="#000000"/><text fill="#000000" font-family="sans-serif" font-size="14" lengthAdjust="spacing" textLength="88.7305" x="52.5" y="684.7285">Shape::Config</text><line style="stroke:#333333;stroke-width:0.5;" x1="24.5" x2="143.2305" y1="695" y2="695"/><text fill="#000000" font-family="sans-serif" font-size="14" lengthAdjust="spacing" textLength="59.9238" x="29.5" y="713.5332">line_color</text><text fill="#000000" font-family="sans-serif" font-size="14" lengthAdjust="spacing" textLength="87.9375" x="29.5" y="731.1426">line_thickness</text><text fill="#000000" font-family="sans-serif" font-size="14" lengthAdjust="spacing" textLength="46.6895" x="29.5" y="748.752">is_filled</text><text fill="#000000" font-family="sans-serif" font-size="14" lengthAdjust="spacing" textLength="51.3516" x="29.5" y="766.3613">fill_color</text></g><!--class Line--><g class="entity" data-qualified-name="MiniDraw Assignment.Line" data-source-line="48" id="ent0010"><rect fill="#FCFCFC" height="32" rx="2.5" ry="2.5" style="stroke:#333333;stroke-width:0.5;" width="58.4688" x="180" y="702"/><rect fill="#EFEFEF" height="32" rx="2.5" ry="2.5" style="stroke:#EFEFEF;stroke-width:0.5;" width="58.4688" x="180" y="702"/><rect fill="#EFEFEF" height="2.5" style="stroke:#EFEFEF;stroke-width:0.5;" width="58.4688" x="180" y="731.5"/><rect fill="none" height="32" rx="2.5" ry="2.5" style="stroke:#333333;stroke-width:0.5;" width="58.4688" x="180" y="702"/><ellipse cx="195" cy="718" fill="#ADD1B2" rx="11" ry="11" style="stroke:#181818;stroke-width:1;"/><path d="M197.7656,713.875 Q197.9219,713.6563 198.1094,713.5469 Q198.2969,713.4375 198.5156,713.4375 Q198.8906,713.4375 199.125,713.7031 Q199.3594,713.9531 199.3594,714.5625 L199.3594,716.0156 Q199.3594,716.625 199.125,716.8906 Q198.8906,717.1563 198.5156,717.1563 Q198.1719,717.1563 197.9688,716.9531 Q197.7656,716.7656 197.6563,716.25 Q197.6094,715.8906 197.4219,715.7031 Q197.0938,715.3281 196.4844,715.1094 Q195.875,714.8906 195.25,714.8906 Q194.4844,714.8906 193.8438,715.2188 Q193.2188,715.5469 192.7188,716.2969 Q192.2344,717.0469 192.2344,718.0781 L192.2344,719.1719 Q192.2344,720.4063 193.125,721.2344 Q194.0156,722.0469 195.6094,722.0469 Q196.5469,722.0469 197.2031,721.7969 Q197.5938,721.6406 198.0156,721.2031 Q198.2813,720.9375 198.4219,720.8594 Q198.5781,720.7813 198.7813,720.7813 Q199.1094,720.7813 199.3594,721.0469 Q199.625,721.2969 199.625,721.6406 Q199.625,721.9844 199.2813,722.3906 Q198.7813,722.9688 197.9844,723.2969 Q196.9063,723.75 195.6094,723.75 Q194.0938,723.75 192.8906,723.125 Q191.9063,722.625 191.2188,721.5625 Q190.5313,720.4844 190.5313,719.2031 L190.5313,718.0469 Q190.5313,716.7188 191.1406,715.5781 Q191.7656,714.4219 192.8594,713.8125 Q193.9531,713.1875 195.1875,713.1875 Q195.9219,713.1875 196.5625,713.3594 Q197.2188,713.5156 197.7656,713.875 Z " fill="#000000"/><text fill="#000000" font-family="sans-serif" font-size="14" lengthAdjust="spacing" textLength="26.4688" x="209" y="723.7285">Line</text></g><!--class Rect--><g class="entity" data-qualified-name="MiniDraw Assignment.Rect" data-source-line="49" id="ent0011"><rect fill="#FCFCFC" height="32" rx="2.5" ry="2.5" style="stroke:#333333;stroke-width:0.5;" width="60.7861" x="273.5" y="702"/><rect fill="#EFEFEF" height="32" rx="2.5" ry="2.5" style="stroke:#EFEFEF;stroke-width:0.5;" width="60.7861" x="273.5" y="702"/><rect fill="#EFEFEF" height="2.5" style="stroke:#EFEFEF;stroke-width:0.5;" width="60.7861" x="273.5" y="731.5"/><rect fill="none" height="32" rx="2.5" ry="2.5" style="stroke:#333333;stroke-width:0.5;" width="60.7861" x="273.5" y="702"/><ellipse cx="288.5" cy="718" fill="#ADD1B2" rx="11" ry="11" style="stroke:#181818;stroke-width:1;"/><path d="M291.2656,713.875 Q291.4219,713.6563 291.6094,713.5469 Q291.7969,713.4375 292.0156,713.4375 Q292.3906,713.4375 292.625,713.7031 Q292.8594,713.9531 292.8594,714.5625 L292.8594,716.0156 Q292.8594,716.625 292.625,716.8906 Q292.3906,717.1563 292.0156,717.1563 Q291.6719,717.1563 291.4688,716.9531 Q291.2656,716.7656 291.1563,716.25 Q291.1094,715.8906 290.9219,715.7031 Q290.5938,715.3281 289.9844,715.1094 Q289.375,714.8906 288.75,714.8906 Q287.9844,714.8906 287.3438,715.2188 Q286.7188,715.5469 286.2188,716.2969 Q285.7344,717.0469 285.7344,718.0781 L285.7344,719.1719 Q285.7344,720.4063 286.625,721.2344 Q287.5156,722.0469 289.1094,722.0469 Q290.0469,722.0469 290.7031,721.7969 Q291.0938,721.6406 291.5156,721.2031 Q291.7813,720.9375 291.9219,720.8594 Q292.0781,720.7813 292.2813,720.7813 Q292.6094,720.7813 292.8594,721.0469 Q293.125,721.2969 293.125,721.6406 Q293.125,721.9844 292.7813,722.3906 Q292.2813,722.9688 291.4844,723.2969 Q290.4063,723.75 289.1094,723.75 Q287.5938,723.75 286.3906,723.125 Q285.4063,722.625 284.7188,721.5625 Q284.0313,720.4844 284.0313,719.2031 L284.0313,718.0469 Q284.0313,716.7188 284.6406,715.5781 Q285.2656,714.4219 286.3594,713.8125 Q287.4531,713.1875 288.6875,713.1875 Q289.4219,713.1875 290.0625,713.3594 Q290.7188,713.5156 291.2656,713.875 Z " fill="#000000"/><text fill="#000000" font-family="sans-serif" font-size="14" lengthAdjust="spacing" textLength="28.7861" x="302.5" y="723.7285">Rect</text></g><!--class Ellipse--><g class="entity" data-qualified-name="MiniDraw Assignment.Ellipse" data-source-line="50" id="ent0012"><rect fill="#FCFCFC" height="32" rx="2.5" ry="2.5" style="stroke:#333333;stroke-width:0.5;" width="73.2412" x="369.5" y="702"/><rect fill="#EFEFEF" height="32" rx="2.5" ry="2.5" style="stroke:#EFEFEF;stroke-width:0.5;" width="73.2412" x="369.5" y="702"/><rect fill="#EFEFEF" height="2.5" style="stroke:#EFEFEF;stroke-width:0.5;" width="73.2412" x="369.5" y="731.5"/><rect fill="none" height="32" rx="2.5" ry="2.5" style="stroke:#333333;stroke-width:0.5;" width="73.2412" x="369.5" y="702"/><ellipse cx="384.5" cy="718" fill="#ADD1B2" rx="11" ry="11" style="stroke:#181818;stroke-width:1;"/><path d="M387.2656,713.875 Q387.4219,713.6563 387.6094,713.5469 Q387.7969,713.4375 388.0156,713.4375 Q388.3906,713.4375 388.625,713.7031 Q388.8594,713.9531 388.8594,714.5625 L388.8594,716.0156 Q388.8594,716.625 388.625,716.8906 Q388.3906,717.1563 388.0156,717.1563 Q387.6719,717.1563 387.4688,716.9531 Q387.2656,716.7656 387.1563,716.25 Q387.1094,715.8906 386.9219,715.7031 Q386.5938,715.3281 385.9844,715.1094 Q385.375,714.8906 384.75,714.8906 Q383.9844,714.8906 383.3438,715.2188 Q382.7188,715.5469 382.2188,716.2969 Q381.7344,717.0469 381.7344,718.0781 L381.7344,719.1719 Q381.7344,720.4063 382.625,721.2344 Q383.5156,722.0469 385.1094,722.0469 Q386.0469,722.0469 386.7031,721.7969 Q387.0938,721.6406 387.5156,721.2031 Q387.7813,720.9375 387.9219,720.8594 Q388.0781,720.7813 388.2813,720.7813 Q388.6094,720.7813 388.8594,721.0469 Q389.125,721.2969 389.125,721.6406 Q389.125,721.9844 388.7813,722.3906 Q388.2813,722.9688 387.4844,723.2969 Q386.4063,723.75 385.1094,723.75 Q383.5938,723.75 382.3906,723.125 Q381.4063,722.625 380.7188,721.5625 Q380.0313,720.4844 380.0313,719.2031 L380.0313,718.0469 Q380.0313,716.7188 380.6406,715.5781 Q381.2656,714.4219 382.3594,713.8125 Q383.4531,713.1875 384.6875,713.1875 Q385.4219,713.1875 386.0625,713.3594 Q386.7188,713.5156 387.2656,713.875 Z " fill="#000000"/><text fill="#000000" font-family="sans-serif" font-size="14" lengthAdjust="spacing" textLength="41.2412" x="398.5" y="723.7285">Ellipse</text></g><!--class Polygon--><g class="entity" data-qualified-name="MiniDraw Assignment.Polygon" data-source-line="51" id="ent0013"><rect fill="#FCFCFC" height="32" rx="2.5" ry="2.5" style="stroke:#333333;stroke-width:0.5;" width="82.5928" x="477.5" y="702"/><rect fill="#EFEFEF" height="32" rx="2.5" ry="2.5" style="stroke:#EFEFEF;stroke-width:0.5;" width="82.5928" x="477.5" y="702"/><rect fill="#EFEFEF" height="2.5" style="stroke:#EFEFEF;stroke-width:0.5;" width="82.5928" x="477.5" y="731.5"/><rect fill="none" height="32" rx="2.5" ry="2.5" style="stroke:#333333;stroke-width:0.5;" width="82.5928" x="477.5" y="702"/><ellipse cx="492.5" cy="718" fill="#ADD1B2" rx="11" ry="11" style="stroke:#181818;stroke-width:1;"/><path d="M495.2656,713.875 Q495.4219,713.6563 495.6094,713.5469 Q495.7969,713.4375 496.0156,713.4375 Q496.3906,713.4375 496.625,713.7031 Q496.8594,713.9531 496.8594,714.5625 L496.8594,716.0156 Q496.8594,716.625 496.625,716.8906 Q496.3906,717.1563 496.0156,717.1563 Q495.6719,717.1563 495.4688,716.9531 Q495.2656,716.7656 495.1563,716.25 Q495.1094,715.8906 494.9219,715.7031 Q494.5938,715.3281 493.9844,715.1094 Q493.375,714.8906 492.75,714.8906 Q491.9844,714.8906 491.3438,715.2188 Q490.7188,715.5469 490.2188,716.2969 Q489.7344,717.0469 489.7344,718.0781 L489.7344,719.1719 Q489.7344,720.4063 490.625,721.2344 Q491.5156,722.0469 493.1094,722.0469 Q494.0469,722.0469 494.7031,721.7969 Q495.0938,721.6406 495.5156,721.2031 Q495.7813,720.9375 495.9219,720.8594 Q496.0781,720.7813 496.2813,720.7813 Q496.6094,720.7813 496.8594,721.0469 Q497.125,721.2969 497.125,721.6406 Q497.125,721.9844 496.7813,722.3906 Q496.2813,722.9688 495.4844,723.2969 Q494.4063,723.75 493.1094,723.75 Q491.5938,723.75 490.3906,723.125 Q489.4063,722.625 488.7188,721.5625 Q488.0313,720.4844 488.0313,719.2031 L488.0313,718.0469 Q488.0313,716.7188 488.6406,715.5781 Q489.2656,714.4219 490.3594,713.8125 Q491.4531,713.1875 492.6875,713.1875 Q493.4219,713.1875 494.0625,713.3594 Q494.7188,713.5156 495.2656,713.875 Z " fill="#000000"/><text fill="#000000" font-family="sans-serif" font-size="14" lengthAdjust="spacing" textLength="50.5928" x="506.5" y="723.7285">Polygon</text></g><!--class Freehand--><g class="entity" data-qualified-name="MiniDraw Assignment.Freehand" data-source-line="52" id="ent0014"><rect fill="#FCFCFC" height="32" rx="2.5" ry="2.5" style="stroke:#333333;stroke-width:0.5;" width="91.9307" x="596" y="702"/><rect fill="#EFEFEF" height="32" rx="2.5" ry="2.5" style="stroke:#EFEFEF;stroke-width:0.5;" width="91.9307" x="596" y="702"/><rect fill="#EFEFEF" height="2.5" style="stroke:#EFEFEF;stroke-width:0.5;" width="91.9307" x="596" y="731.5"/><rect fill="none" height="32" rx="2.5" ry="2.5" style="stroke:#333333;stroke-width:0.5;" width="91.9307" x="596" y="702"/><ellipse cx="611" cy="718" fill="#ADD1B2" rx="11" ry="11" style="stroke:#181818;stroke-width:1;"/><path d="M613.7656,713.875 Q613.9219,713.6563 614.1094,713.5469 Q614.2969,713.4375 614.5156,713.4375 Q614.8906,713.4375 615.125,713.7031 Q615.3594,713.9531 615.3594,714.5625 L615.3594,716.0156 Q615.3594,716.625 615.125,716.8906 Q614.8906,717.1563 614.5156,717.1563 Q614.1719,717.1563 613.9688,716.9531 Q613.7656,716.7656 613.6563,716.25 Q613.6094,715.8906 613.4219,715.7031 Q613.0938,715.3281 612.4844,715.1094 Q611.875,714.8906 611.25,714.8906 Q610.4844,714.8906 609.8438,715.2188 Q609.2188,715.5469 608.7188,716.2969 Q608.2344,717.0469 608.2344,718.0781 L608.2344,719.1719 Q608.2344,720.4063 609.125,721.2344 Q610.0156,722.0469 611.6094,722.0469 Q612.5469,722.0469 613.2031,721.7969 Q613.5938,721.6406 614.0156,721.2031 Q614.2813,720.9375 614.4219,720.8594 Q614.5781,720.7813 614.7813,720.7813 Q615.1094,720.7813 615.3594,721.0469 Q615.625,721.2969 615.625,721.6406 Q615.625,721.9844 615.2813,722.3906 Q614.7813,722.9688 613.9844,723.2969 Q612.9063,723.75 611.6094,723.75 Q610.0938,723.75 608.8906,723.125 Q607.9063,722.625 607.2188,721.5625 Q606.5313,720.4844 606.5313,719.2031 L606.5313,718.0469 Q606.5313,716.7188 607.1406,715.5781 Q607.7656,714.4219 608.8594,713.8125 Q609.9531,713.1875 611.1875,713.1875 Q611.9219,713.1875 612.5625,713.3594 Q613.2188,713.5156 613.7656,713.875 Z " fill="#000000"/><text fill="#000000" font-family="sans-serif" font-size="14" lengthAdjust="spacing" textLength="59.9307" x="625" y="723.7285">Freehand</text></g><g class="entity" data-qualified-name="GMN25" data-source-line="67" id="ent0026"><path d="M720,287 L720,329 L649.1,333 L720,337 L720,378.7578 A0,0 0 0 0 720,378.7578 L892.0234,378.7578 A0,0 0 0 0 892.0234,378.7578 L892.0234,297 L882.0234,287 L720,287 A0,0 0 0 0 720,287" fill="#FFF8DC" style="stroke:#C8B560;stroke-width:0.5;"/><path d="M882.0234,287 L882.0234,297 L892.0234,297 L882.0234,287" fill="#FFF8DC" style="stroke:#C8B560;stroke-width:0.5;"/><text fill="#000000" font-family="sans-serif" font-size="13" lengthAdjust="spacing" textLength="93.9326" x="726" y="305.4951">Responsibilities:</text><text fill="#000000" font-family="sans-serif" font-size="13" lengthAdjust="spacing" textLength="142.3525" x="726" y="321.8467">- shape list management</text><text fill="#000000" font-family="sans-serif" font-size="13" lengthAdjust="spacing" textLength="142.3462" x="726" y="338.1982">- mouse interaction state</text><text fill="#000000" font-family="sans-serif" font-size="13" lengthAdjust="spacing" textLength="151.0234" x="726" y="354.5498">- selection/edit transaction</text><text fill="#000000" font-family="sans-serif" font-size="13" lengthAdjust="spacing" textLength="66.4917" x="726" y="370.9014">- undo/redo</text></g><g class="entity" data-qualified-name="GMN28" data-source-line="75" id="ent0029"><path d="M723,688.5 L723,747.5547 L906.5825,747.5547 L906.5825,698.5 L896.5825,688.5 L723,688.5" fill="#FFF8DC" style="stroke:#C8B560;stroke-width:0.5;"/><path d="M896.5825,688.5 L896.5825,698.5 L906.5825,698.5 L896.5825,688.5" fill="#FFF8DC" style="stroke:#C8B560;stroke-width:1;"/><text fill="#000000" font-family="sans-serif" font-size="13" lengthAdjust="spacing" textLength="162.5825" x="729" y="706.9951">Common shape abstraction.</text><text fill="#000000" font-family="sans-serif" font-size="13" lengthAdjust="spacing" textLength="152.4834" x="729" y="723.3467">Concrete shapes are used</text><text fill="#000000" font-family="sans-serif" font-size="13" lengthAdjust="spacing" textLength="132.228" x="729" y="739.6982">through polymorphism.</text></g><!--reverse link Window to MiniDraw--><g class="link" data-entity-1="ent0003" data-entity-2="ent0006" data-link-type="extension" data-source-line="55" id="lnk15"><path codeLine="55" d="M454,93.32 C454,112.67 454,127.28 454,150.97" fill="none" id="Window-backto-MiniDraw" style="stroke:#444444;stroke-width:1;"/><polygon fill="none" points="454,75.32,448,93.32,460,93.32,454,75.32" style="stroke:#444444;stroke-width:1;"/></g><!--reverse link Widget to Canvas--><g class="link" data-entity-1="ent0004" data-entity-2="ent0007" data-link-type="extension" data-source-line="56" id="lnk16"><path codeLine="56" d="M573.25,93.32 C573.25,130.53 573.25,205.35 573.25,268.8" fill="none" id="Widget-backto-Canvas" style="stroke:#444444;stroke-width:1;"/><polygon fill="none" points="573.25,75.32,567.25,93.32,579.25,93.32,573.25,75.32" style="stroke:#444444;stroke-width:1;"/></g><!--reverse link MiniDraw to Canvas--><g class="link" data-entity-1="ent0006" data-entity-2="ent0007" data-link-type="aggregation" data-source-line="57" id="lnk17"><path codeLine="57" d="M457.75,221.14 C457.75,238.05 457.75,248.04 457.75,268.8" fill="none" id="MiniDraw-backto-Canvas" style="stroke:#444444;stroke-width:1;"/><polygon fill="none" points="457.75,209.14,453.75,215.14,457.75,221.14,461.75,215.14,457.75,209.14" style="stroke:#444444;stroke-width:1;"/><text fill="#000000" font-family="sans-serif" font-size="13" lengthAdjust="spacing" textLength="30.3481" x="426.75" y="235.4651">owns</text></g><!--reverse link Canvas to Shape--><g class="link" data-entity-1="ent0007" data-entity-2="ent0008" data-link-type="aggregation" data-source-line="58" id="lnk18"><path codeLine="58" d="M446.5,409.23 C446.5,428.32 446.5,437.37 446.5,456.97" fill="none" id="Canvas-backto-Shape" style="stroke:#444444;stroke-width:1;"/><polygon fill="none" points="446.5,397.23,442.5,403.23,446.5,409.23,450.5,403.23,446.5,397.23" style="stroke:#444444;stroke-width:1;"/><text fill="#000000" font-family="sans-serif" font-size="13" lengthAdjust="spacing" textLength="53.479" x="392.5" y="423.5951">manages</text><text fill="#000000" font-family="sans-serif" font-size="13" lengthAdjust="spacing" textLength="19.5127" x="427.1332" y="446.1448">0..*</text></g><!--reverse link Shape to ShapeConfig--><g class="link" data-entity-1="ent0008" data-entity-2="ent0009" data-link-type="composition" data-source-line="59" id="lnk19"><path codeLine="59" d="M393.83,615.43 C393.83,651.78 393.83,676 393.83,676 C393.83,676 235.08,676 144.84,676" fill="none" id="Shape-backto-ShapeConfig" style="stroke:#444444;stroke-width:1;"/><polygon fill="#444444" points="393.83,603.43,389.83,609.43,393.83,615.43,397.83,609.43,393.83,603.43" style="stroke:#444444;stroke-width:1;"/><text fill="#000000" font-family="sans-serif" font-size="13" lengthAdjust="spacing" textLength="26.73" x="278.62" y="672.4951">style</text></g><!--reverse link Shape to Line--><g class="link" data-entity-1="ent0008" data-entity-2="ent0010" data-link-type="extension" data-source-line="60" id="lnk20"><path codeLine="60" d="M345.75,506 C278.26,506 209,506 209,506 C209,506 209,652.07 209,701.72" fill="none" id="Shape-backto-Line" style="stroke:#444444;stroke-width:1;"/><polygon fill="none" points="363.75,506,345.75,500,345.75,512,363.75,506" style="stroke:#444444;stroke-width:1;"/></g><!--reverse link Shape to Rect--><g class="link" data-entity-1="ent0008" data-entity-2="ent0011" data-link-type="extension" data-source-line="61" id="lnk21"><path codeLine="61" d="M345.97,555 C325.03,555 326,555 326,555 C326,555 326,660.55 326,701.78" fill="none" id="Shape-backto-Rect" style="stroke:#444444;stroke-width:1;"/><polygon fill="none" points="363.97,555,345.97,549,345.97,561,363.97,555" style="stroke:#444444;stroke-width:1;"/></g><!--reverse link Shape to Ellipse--><g class="link" data-entity-1="ent0008" data-entity-2="ent0012" data-link-type="extension" data-source-line="62" id="lnk22"><path codeLine="62" d="M418.17,621.22 C418.17,657.31 418.17,679.69 418.17,701.64" fill="none" id="Shape-backto-Ellipse" style="stroke:#444444;stroke-width:1;"/><polygon fill="none" points="418.17,603.22,412.17,621.22,424.17,621.22,418.17,603.22" style="stroke:#444444;stroke-width:1;"/></g><!--reverse link Shape to Polygon--><g class="link" data-entity-1="ent0008" data-entity-2="ent0013" data-link-type="extension" data-source-line="63" id="lnk23"><path codeLine="63" d="M491,621.22 C491,657.31 491,679.69 491,701.64" fill="none" id="Shape-backto-Polygon" style="stroke:#444444;stroke-width:1;"/><polygon fill="none" points="491,603.22,485,621.22,497,621.22,491,603.22" style="stroke:#444444;stroke-width:1;"/></g><!--reverse link Shape to Freehand--><g class="link" data-entity-1="ent0008" data-entity-2="ent0014" data-link-type="extension" data-source-line="64" id="lnk24"><path codeLine="64" d="M536.24,530 C585.64,530 622.5,530 622.5,530 C622.5,530 622.5,656.51 622.5,701.97" fill="none" id="Shape-backto-Freehand" style="stroke:#444444;stroke-width:1;"/><polygon fill="none" points="518.24,530,536.24,536,536.24,524,518.24,530" style="stroke:#444444;stroke-width:1;"/></g><!--link Shape to GMN28--><g class="link" data-entity-1="ent0008" data-entity-2="ent0029" data-link-type="association" data-source-line="75" id="lnk30"><path d="M504.5,603.29 C504.5,647.76 504.5,696 504.5,696 C504.5,696 631.15,696 722.68,696" fill="none" id="Shape-GMN28" style="stroke:#444444;stroke-width:1;stroke-dasharray:7,7;"/></g><?plantuml-src TLHDRzim3BtxLn3f9ItQjC0-K0H5WTPji07RCAo77Gt5PcoXicX8QbElstyV9TcEccps8I7VunD9aRQFKdV2Y1RMedoi3JtfAYT51hQDT9ZP2RUDg6WhTGqReMoAb4fOU-ESaUidXvzBqW_o5y95Gb5Ie-ix13AkeGJe-5HHuuFh5OB1qWbTgrJynXZQneoEteSd0ND_yYsP2ir0UHUU0yfURKUhtB_xj4yeMEc0VB_oRqB-HWuF9LUhoxjydvNcbb_UVlXuaJMoGi2sSpsqsAxHs2mRsW2p5KVYbipZ35up0B6speZInHx3Jwdv3lxbhsfqsPz4wAlKyiw8BTnOAslTedPHCaPCi7S1d45Nb48_2rii_KqRh8hEcQiy-AwPmzfZR7HEaKpli53IEevzvYiaSvL8F7Zu-deWSx-eQ9XBfYy67pCFV1OLAx54LEUwyMN4EjGLps71WxQHDHyQZbWkys2FkUwrA726d5z7x0zKt8Dv53hUntW12eVMpLzEeJy5HmgDq2KU4Fb7MoKSpYkcLlq1mP3pg16LPEOfi4f3ve1cIw5mRbd3zlybbOeqpe_VNidiJGjc88Q2epsKxPUGcyQpk3DT8yj7ZTO6bxJ5HYg5LR3ytucV7FQ50oVZ1r_JPDmh9Jkx0x-JwclIaxqoY8tGbP_KECjmzVliR9h6B0voTCOnowP9fSa7Iw2jjjbWUM1siLYSp8PRNa8hD6-1pQ9zmeIq7JpY_dipeE6mK5DYXx8IUwmiSOt59QwflappyeEHTUE0DcCfmBAs8stbMYhf9DfbDcqG-0qQ4lVR6f2MdYo2r0xzvKlId3bFKhPR4VQTOoLT7C98oiPDE_UhbV6wWCzdo6fDpb7hqmgPCpcdjlNI8OrnqbXd4J1T6kImW5hWlGREoK-8Q_ZxLpVGSIDQCXslSBlOdVON?></g></svg>